<svg width="24" height="24" viewBox="0 0 24 24" fill="none" xmlns="http://www.w3.org/2000/svg">
<path d="M23.0625 12.9375H3.20824L6.49718 16.2105C6.86416 16.5758 6.86557 17.1693 6.50032 17.5363C6.13507 17.9033 5.54144 17.9047 5.17446 17.5395L0.27583 12.6645C0.275502 12.6642 0.275268 12.6639 0.274987 12.6636C-0.0910604 12.2984 -0.0922323 11.7029 0.274893 11.3364C0.275221 11.3361 0.275455 11.3358 0.275737 11.3355L5.17436 6.4605C5.5413 6.09535 6.13493 6.09661 6.50022 6.46369C6.86547 6.83068 6.86407 7.42425 6.49708 7.7895L3.20824 11.0625H23.0625C23.5803 11.0625 24 11.4822 24 12C24 12.5178 23.5803 12.9375 23.0625 12.9375Z" fill="#525252"/>
</svg>
