<svg width="205" height="45" viewBox="0 0 205 45" fill="none" xmlns="http://www.w3.org/2000/svg">
<path d="M22.6565 22.2206C23.3039 21.9335 23.8612 21.465 24.2657 20.868C24.658 20.2796 24.8634 19.5791 24.8533 18.8641C24.8596 17.971 24.5371 17.1089 23.9514 16.4533C23.2984 15.7234 22.4748 15.1801 21.56 14.8758C20.5051 14.509 19.3982 14.3282 18.2854 14.341C16.4645 14.3237 14.6667 14.7639 13.0461 15.6239L14.1127 18.461C14.7481 18.087 15.429 17.8028 16.1373 17.6161C16.8118 17.4328 17.5058 17.3378 18.2031 17.3332C18.9705 17.3013 19.7323 17.4805 20.4111 17.8525C20.6705 17.9853 20.8887 18.1908 21.0409 18.4457C21.193 18.7006 21.2731 18.9947 21.2718 19.2944C21.28 19.5364 21.2295 19.7768 21.1249 19.9935C21.0203 20.2101 20.865 20.3962 20.6731 20.5346C20.1777 20.8629 19.5947 21.0203 19.0077 20.9842H15.5647V23.7322H19.2846C19.9535 23.6968 20.6189 23.8523 21.2082 24.1818C21.4321 24.3154 21.6164 24.5099 21.7411 24.7443C21.8658 24.9787 21.9261 25.2439 21.9155 25.5113C21.914 25.859 21.8157 26.1989 21.6326 26.4904C21.4494 26.7818 21.189 27.0124 20.8826 27.1546C20.0769 27.5728 19.1824 27.7741 18.2817 27.7399C17.4843 27.7366 16.6907 27.6272 15.9202 27.4143C15.1429 27.209 14.399 26.8864 13.7122 26.457L12.627 29.0693C13.5493 29.6232 14.5419 30.0407 15.5759 30.3096C16.5969 30.5717 17.6453 30.7019 18.6971 30.6972C19.8548 30.7103 21.0062 30.5203 22.1027 30.1352C23.0462 29.8228 23.8966 29.2649 24.5726 28.5151C25.1731 27.8325 25.4997 26.9384 25.4858 26.0151C25.4988 25.1744 25.2348 24.3541 24.7373 23.6896C24.1994 22.9974 23.4752 22.4862 22.6565 22.2206V22.2206Z" fill="#1D1D1B"/>
<path d="M38.9208 15.372C37.8109 14.8827 36.6127 14.6448 35.4067 14.6743H28.8164V30.4453H32.3417V26.0966H35.4105C36.6141 26.1256 37.8102 25.8918 38.9208 25.4105C39.8589 24.9997 40.6575 24.3089 41.2149 23.4261C41.7633 22.5189 42.043 21.4652 42.0195 20.3951C42.0633 19.3277 41.7896 18.2721 41.2355 17.371C40.6813 16.4699 39.8733 15.7667 38.9208 15.3565V15.372ZM37.626 22.4145C37.0746 22.8873 36.27 23.1238 35.2121 23.1238H32.338V17.6471H35.2084C36.2662 17.6471 37.0708 17.8836 37.6222 18.3564C37.9018 18.6078 38.1218 18.9224 38.2652 19.2759C38.4087 19.6294 38.4716 20.0124 38.4493 20.3951C38.4707 20.7749 38.4072 21.1547 38.2638 21.505C38.1203 21.8552 37.9008 22.1665 37.6222 22.4145H37.626Z" fill="#1D1D1B"/>
<path d="M56.637 15.4608C55.314 14.7644 53.851 14.4014 52.3669 14.4014C50.8829 14.4014 49.4198 14.7644 48.0969 15.4608C46.8586 16.1299 45.8226 17.1398 45.103 18.3794C44.3785 19.6425 44.0055 21.0886 44.0252 22.5576C44.0086 24.0307 44.3869 25.4797 45.1179 26.7435C45.8376 27.9832 46.8736 28.9931 48.1118 29.6621C49.4348 30.3586 50.8978 30.7216 52.3819 30.7216C53.8659 30.7216 55.329 30.3586 56.6519 29.6621C57.894 28.9762 58.9327 27.9536 59.657 26.7036C60.3813 25.4536 60.7639 24.0232 60.7639 22.5653C60.7639 21.1075 60.3813 19.6771 59.657 18.4271C58.9327 17.1771 57.894 16.1545 56.6519 15.4686L56.637 15.4608ZM56.5097 25.1738C56.1121 25.923 55.5213 26.5429 54.8032 26.9645C54.0565 27.3844 53.2203 27.6044 52.3707 27.6044C51.521 27.6044 50.6848 27.3844 49.9381 26.9645C49.2199 26.5431 48.629 25.9231 48.2316 25.1738C47.824 24.367 47.6112 23.4701 47.6112 22.5595C47.6112 21.649 47.824 20.752 48.2316 19.9452C48.6289 19.1959 49.2198 18.5758 49.9381 18.1546C50.6848 17.7346 51.521 17.5146 52.3707 17.5146C53.2203 17.5146 54.0565 17.7346 54.8032 18.1546C55.5214 18.576 56.1123 19.196 56.5097 19.9452C56.9173 20.752 57.1302 21.649 57.1302 22.5595C57.1302 23.4701 56.9173 24.367 56.5097 25.1738V25.1738Z" fill="#1D1D1B"/>
<path d="M75.8995 22.0191C74.9339 21.2233 73.5305 20.8253 71.6893 20.8253H67.4716V17.5812H76.2587V14.6743H63.9688V30.4453H71.1915C73.1501 30.4453 74.6657 30.0099 75.7385 29.1391C76.2703 28.704 76.6939 28.1435 76.9739 27.5043C77.2538 26.8651 77.382 26.1658 77.3478 25.4648C77.3478 23.9635 76.865 22.815 75.8995 22.0191ZM73.059 27.1895C72.4445 27.5961 71.7208 27.7889 70.9932 27.7399H67.4679V23.5075H70.9932C72.8494 23.5075 73.7775 24.1987 73.7775 25.5811C73.7947 25.8897 73.7381 26.1979 73.6128 26.4785C73.4874 26.7591 73.2972 27.0033 73.059 27.1895V27.1895Z" fill="#1D1D1B"/>
<path d="M81.8491 21.0734C81.7618 23.2672 81.551 24.8782 81.2167 25.9066C80.8824 26.935 80.2948 27.4518 79.454 27.457C79.2401 27.4604 79.0268 27.4304 78.8216 27.3678L78.6045 30.4685C79.1738 30.6183 79.7575 30.7015 80.3447 30.7166C80.8476 30.7464 81.3507 30.6619 81.8187 30.4691C82.2868 30.2763 82.7085 29.9798 83.0542 29.6003C83.7785 28.6792 84.2549 27.576 84.4351 26.4027C84.751 24.5961 84.9238 22.7658 84.9516 20.93L85.0601 17.6394H90.2994V30.4298H93.7798V14.6743H82.0662L81.8491 21.0734Z" fill="#1D1D1B"/>
<path d="M101.624 23.8679H108.693V21.0269H101.624V17.6045H109.629V14.6743H98.1211V30.4453H109.91V27.5151H101.624V23.8679Z" fill="#1D1D1B"/>
<path d="M123.746 20.8912H116.83V14.6743H113.305V30.4453H116.83V23.9803H123.746V30.4453H127.271V14.6743H123.746V20.8912Z" fill="#1D1D1B"/>
<path d="M146.133 18.3794C145.409 17.1432 144.374 16.1343 143.139 15.4608C141.816 14.7644 140.353 14.4014 138.869 14.4014C137.385 14.4014 135.922 14.7644 134.599 15.4608C133.361 16.1299 132.325 17.1398 131.605 18.3794C130.881 19.6426 130.508 21.0886 130.527 22.5576C130.514 24.0318 130.896 25.4809 131.631 26.7435C132.351 27.9832 133.387 28.9931 134.625 29.6621C135.948 30.3586 137.411 30.7216 138.895 30.7216C140.379 30.7216 141.842 30.3586 143.165 29.6621C144.089 29.1382 144.902 28.4273 145.555 27.5716C146.208 26.716 146.689 25.7331 146.968 24.6814C147.247 23.6296 147.319 22.5305 147.181 21.4492C147.042 20.3679 146.694 19.3266 146.159 18.3871L146.133 18.3794ZM143.034 25.1738C142.636 25.923 142.046 26.5429 141.328 26.9645C140.581 27.3844 139.745 27.6044 138.895 27.6044C138.045 27.6044 137.209 27.3844 136.462 26.9645C135.733 26.5477 135.132 25.9273 134.726 25.1738C134.318 24.367 134.106 23.4701 134.106 22.5595C134.106 21.649 134.318 20.752 134.726 19.9452C135.123 19.1959 135.714 18.5758 136.433 18.1546C137.179 17.7346 138.015 17.5146 138.865 17.5146C139.715 17.5146 140.551 17.7346 141.298 18.1546C142.016 18.576 142.607 19.196 143.004 19.9452C143.412 20.752 143.625 21.649 143.625 22.5595C143.625 23.4701 143.412 24.367 143.004 25.1738H143.034Z" fill="#1D1D1B"/>
<path d="M201.714 3.0542L198.971 5.89522V0H0V44.875H198.967V12.7052L204.996 6.4611L201.714 3.0542ZM2.91157 2.71312H156.51V42.1619H2.91157V2.71312ZM196.059 42.1619H159.425V2.71312H196.059V8.91454L176.771 28.8831L166.891 18.6508L163.594 22.0538L176.771 35.7047L196.059 15.7283V42.1619Z" fill="#1D1D1B"/>
</svg>
