<svg version="1" xmlns="http://www.w3.org/2000/svg" width="400" height="400" viewBox="0 0 300.000000 300.000000"><path d="M17.3 15c-6 1.4-11.6 6.1-15.1 12.5C.6 30.2.5 39.4.5 131.5v101l2.3 4.4c2.6 4.9 4.9 7.2 10.7 10.3 3.8 2.1 5.2 2.2 30.7 2.3 23.1 0 26.8.2 26.9 1.5 0 .8 0 7.1.1 13.9 0 12 .1 12.4 2.8 15.4l2.8 3.1 91.3.1c97.4.1 94 .3 97.6-4.4 1.6-2.1 1.9-144.2.3-147.2-.6-1-2.3-2.5-3.9-3.4-4.7-2.4-9.4-.6-11.3 4.5-.6 1.5-.9 28.1-.9 67.8V266l-4.7.1c-33.7.3-155.5-.1-156-.6-1.2-1.1-.9-15.5.2-15.6.6-.1 29.7-.2 64.6-.3l63.5-.1 4.7-2.3c2.6-1.3 6-3.8 7.4-5.5 5.9-6.9 5.8-5.8 5.8-60.5l.1-50.2 31.8-31.8c33.2-33.2 34-34.2 31.5-39.8-.6-1.2-2.1-2.7-3.5-3.3-6-2.7-6.3-2.5-33.3 24.4-14 14-25.8 25.5-26 25.5-.3 0-.5-16.1-.5-35.8 0-40.6-.3-42.8-7.2-49.1-7.7-7.2 1.6-6.6-108.3-6.8-54.7 0-101 .2-102.7.7z"/></svg>